<svg width="512" height="504" viewBox="0 0 512 504" fill="none" xmlns="http://www.w3.org/2000/svg">
<path fill-rule="evenodd" clip-rule="evenodd" d="M139.5 0.992989C133.293 2.32199 128.877 4.48699 122.433 9.36299C119.17 11.831 91.9149 38.522 61.8659 68.676C19.7199 110.969 6.64588 124.67 4.66488 128.621C-3.07512 144.056 -0.261116 162.554 11.6189 174.343C20.8629 183.515 33.1769 187.419 45.6289 185.124C57.2879 182.976 60.5659 180.582 85.1949 156.22L107.983 133.681L108.241 304.09L108.5 474.5L111.582 481.003C123.219 505.558 154.802 511.103 173.952 491.952C180.064 485.841 183.681 478.464 184.961 469.5C185.594 465.068 185.968 402.375 185.98 298.585L186 134.67L207.75 156.148C231.262 179.367 234.915 181.99 246.813 184.202C262.408 187.103 280.25 178.171 287.589 163.791C291.253 156.611 292.695 146.428 291.124 138.822C288.507 126.15 288.667 126.336 230.163 67.916C200.098 37.894 172.941 11.424 169.814 9.09399C160.399 2.07699 148.85 -1.00901 139.5 0.992989ZM361.5 1.15299C354.613 2.11799 351.007 3.33899 346.341 6.28499C338.457 11.262 332.356 18.937 329.194 27.857C327.695 32.084 327.521 47.623 327.251 201.449L326.955 370.398L304.228 347.806C287.903 331.579 280.06 324.495 276.389 322.661C243.389 306.173 208.354 340.209 223.903 373.651C226.893 380.082 230.642 384.049 285.294 438.616C347.907 501.132 347.193 500.517 360.167 503.11C367.17 504.51 375.667 503.209 383.833 499.488C388.768 497.24 396.951 489.448 447.152 439.203C509.313 376.986 508.72 377.677 511.126 364.619C515.855 338.952 492.489 315.467 466.75 320.017C455.616 321.985 452.175 324.51 428.492 348.089C416.387 360.14 406.154 370 405.75 370C405.347 370 404.901 293.388 404.759 199.75L404.5 29.5L401.405 23C394.198 7.85999 377.78 -1.12801 361.5 1.15299Z" fill="black"/>
</svg>
